# xmcd
#
# Track frame offsets:
#	150
#	12347
#	27769
#	39517
#	55570
#	71693
#	89825
#	110609
#	123294
#	142193
#	157721
#
# Disc length: 2333 seconds
# Revision: 1
# Processed by: cddbd v1.5.2PL0 Copyright (c) Steve Scherf et al.
# Submitted via: dBpowerAMP V12.0
#
DISCID=8e091b0b
DTITLE=Growling Old Men - Chicken Feed and Baling Twine
DYEAR=2013
DGENRE=Bluegrass
TTITLE0=Lazy John
TTITLE1=Waterbound
TTITLE2=How Many Days
TTITLE3=My Name's Mudd
TTITLE4=Elzik's Farewell
TTITLE5=Billy Gray
TTITLE6=Doubletree
TTITLE7=Wabash Blues
TTITLE8=Summerfly
TTITLE9=Toolshed
TTITLE10=Wild Jack
EXTD=
EXTT0=
EXTT1=
EXTT2=
EXTT3=
EXTT4=
EXTT5=
EXTT6=
EXTT7=
EXTT8=
EXTT9=
EXTT10=
PLAYORDER=
